<?xml version="1.0"?>
<svg xmlns="http://www.w3.org/2000/svg" xmlns:xlink="http://www.w3.org/1999/xlink"  version="1.1" width="90px" height="54px" x="0" y="0" viewBox="0 0 512 512" style="enable-background:new 0 0 512 512" class=""><g><linearGradient xmlns="http://www.w3.org/2000/svg" id="a" gradientUnits="userSpaceOnUse" x1="256" x2="256" y1="0" y2="512"><stop stop-opacity="1" stop-color="#2af598" offset="0"/><stop stop-opacity="1" stop-color="#392184" offset="0.749034749034749"/><stop stop-opacity="1" stop-color="#392184" offset="1"/></linearGradient><path xmlns="http://www.w3.org/2000/svg" d="m237 40h-40v-40h40zm235-40h-39v40h39v39h40v-39c0-22.089844-17.910156-40-40-40zm-157 0h-40v40h40zm78 0h-40v40h40zm-234 0h-40v40h40zm-119 40h38v-40h-38c-22.089844 0-40 17.910156-40 40v39h40zm155 472h40v-40h-40zm277-40h-39v40h39c22.089844 0 40-17.910156 40-40v-40h-40zm-199 40h40v-40h-40zm80 0h40v-40h-40zm-236 0h40v-40h-40zm-77-80h-40v40c0 22.089844 17.910156 40 40 40h38v-40h-38zm290-195v38c0 39.699219-32.300781 72-72 72h-62v-182h62c39.699219 0 72 32.300781 72 72zm-40 0c0-17.644531-14.355469-32-32-32h-22v102h22c17.644531 0 32-14.355469 32-32zm207 54.5c0-30.601562-24.898438-55.5-55.5-55.5h-32c-8.546875 0-15.5-6.953125-15.5-15.5s6.953125-15.5 15.5-15.5h66.5v-40h-66.5c-30.601562 0-55.5 24.898438-55.5 55.5s24.898438 55.5 55.5 55.5h32c8.546875 0 15.5 6.953125 15.5 15.5s-6.953125 15.5-15.5 15.5h-88.5v40h88.5c30.601562 0 55.5-24.898438 55.5-55.5zm-388.855469-126.5 62.792969 182h-42.316406l-8.96875-26h-54.171875l-9.101563 26h-42.378906l63.699219-182zm-2.292969 116-13.089843-37.949219-13.28125 37.949219zm0 0" fill="url(#a)" data-original="url(#a)" style=""/></g></svg>
