<?xml version="1.0"?>
<svg xmlns="http://www.w3.org/2000/svg" xmlns:xlink="http://www.w3.org/1999/xlink" version="1.1" width="54" height="54" x="0" y="0" viewBox="0 0 510 510" style="enable-background:new 0 0 512 512" xml:space="preserve" class=""><g><g xmlns="http://www.w3.org/2000/svg"><path d="m162.599 154.7-23.13 77.3h101.06v-88h-63.56c-6.63 0-12.48 4.35-14.37 10.7z" fill="#875c63" data-original="#000000" style="" class=""/><path d="m335.089 144h-64.56v88h102.06l-23.13-77.3c-1.89-6.35-7.74-10.7-14.37-10.7z" fill="#875c63" data-original="#000000" style="" class=""/><path d="m115.539 312h124.99v-50h-110.03z" fill="#875c63" data-original="#000000" style="" class=""/><path d="m270.529 262 .045 50h124.911l-13.911-50z" fill="#875c63" data-original="#000000" style="" class=""/><path d="m104.509 391.8 16.41-16.41c5.86-5.85 15.36-5.85 21.22 0 5.85 5.86 5.85 15.36 0 21.221l-11.39 11.389h109.78v-66h-133.96c-2.49 8.28-2.14 2.14-2.06 49.8z" fill="#875c63" data-original="#000000" style="" class=""/><path d="m389.999 375.39 16.54 16.54c.09-47.91.44-41.62-2.05-49.93h-133.96v66h109.64l-11.39-11.39c-5.85-5.86-5.85-15.36 0-21.221 5.86-5.849 15.36-5.849 21.22.001z" fill="#875c63" data-original="#000000" style="" class=""/><path d="m104.529 495c0 8.28 6.72 15 15 15h121v-72h-136z" fill="#875c63" data-original="#000000" style="" class=""/><path d="m270.529 510h122c8.28 0 15-6.72 15-15v-57h-137z" fill="#875c63" data-original="#000000" style="" class=""/><path d="m16.529 438.99c0 8.285 6.713 15.01 15 15.01h43v-64h-57.98z" fill="#875c63" data-original="#000000" style="" class=""/><path d="m34.759 276.76-17.23 45.98c-1.296 3.454-.959 2.05-.97 37.26h57.97c0-19.994-1.774-9.655 16.44-70.53z" fill="#875c63" data-original="#000000" style="" class=""/><path d="m65.159 195.63-19.78 52.77 54.2 12.26 16.04-53.62z" fill="#875c63" data-original="#000000" style="" class=""/><path d="m493.452 390h-57.98v64h43c8.285 0 15-6.723 15-15.01z" fill="#875c63" data-original="#000000" style="" class=""/><path d="m435.472 360h57.97l-.01-32.01c0-3.714.415-1.581-18.19-51.23l-56.21 12.71c18.084 60.441 16.44 50.771 16.44 70.53z" fill="#875c63" data-original="#000000" style="" class=""/><path d="m444.842 195.63-50.46 11.41 16.04 53.62 54.2-12.26z" fill="#875c63" data-original="#000000" style="" class=""/><path d="m270.529 64v50h63.796c19.786 0 37.371 12.922 43.12 32.1l9.61 32.131 48.46-10.95c-23.404-62.458-21.846-58.338-22.15-59.04-11.437-25.42-36.626-44.241-70.6-44.241v-51.074c0-6.669-6.095-12.926-15.236-12.926-14.268 0-129.847 0-144 0-8.28 0-15 5.791-15 12.926v51.074c-33.313 0-58.893 18.222-70.6 44.24-.305.703 1.242-3.385-22.15 59.04l48.46 10.95 9.61-32.131c5.694-18.992 23.14-32.1 43.12-32.1h63.56c.366 0 .236 3.826.236-50h29.764z" fill="#875c63" data-original="#000000" style="" class=""/></g></g></svg>
